<svg width="80" height="80" viewBox="0 0 80 80" fill="none" xmlns="http://www.w3.org/2000/svg">
<path d="M13.3337 10H66.667C68.4351 10 70.1308 10.7024 71.381 11.9526C72.6313 13.2029 73.3337 14.8986 73.3337 16.6667V36.6667C73.3337 45.5072 69.8218 53.9857 63.5706 60.2369C57.3193 66.4881 48.8409 70 40.0003 70C35.6229 70 31.2884 69.1378 27.2442 67.4627C23.2 65.7875 19.5254 63.3322 16.4301 60.2369C10.1789 53.9857 6.66699 45.5072 6.66699 36.6667V16.6667C6.66699 14.8986 7.36937 13.2029 8.61961 11.9526C9.86986 10.7024 11.5655 10 13.3337 10Z" stroke="white" stroke-width="4" stroke-linecap="round" stroke-linejoin="round"/>
<path d="M26.667 33.3333L40.0003 46.6666L53.3337 33.3333" stroke="white" stroke-width="4" stroke-linecap="round" stroke-linejoin="round"/>
</svg>
