<svg width="34" height="34" viewBox="0 0 34 34" fill="none" xmlns="http://www.w3.org/2000/svg">
<path d="M5.66683 4.25H28.3335C29.0849 4.25 29.8056 4.54851 30.337 5.07986C30.8683 5.61122 31.1668 6.33189 31.1668 7.08333V15.5833C31.1668 19.3406 29.6743 22.9439 27.0175 25.6007C24.3607 28.2574 20.7574 29.75 17.0002 29.75C15.1398 29.75 13.2976 29.3836 11.5788 28.6716C9.86003 27.9597 8.29831 26.9162 6.98282 25.6007C4.32605 22.9439 2.8335 19.3406 2.8335 15.5833V7.08333C2.8335 6.33189 3.13201 5.61122 3.66336 5.07986C4.19471 4.54851 4.91538 4.25 5.66683 4.25Z" stroke="#202020" stroke-width="2" stroke-linecap="round" stroke-linejoin="round"/>
<path d="M11.3335 14.1667L17.0002 19.8334L22.6668 14.1667" stroke="#202020" stroke-width="2" stroke-linecap="round" stroke-linejoin="round"/>
</svg>
