<svg width="34" height="34" viewBox="0 0 34 34" fill="none" xmlns="http://www.w3.org/2000/svg">
<path d="M32.5835 5.66675V14.1667H24.0835" stroke="#202020" stroke-width="2" stroke-linecap="round" stroke-linejoin="round"/>
<path d="M1.4165 28.3333V19.8333H9.9165" stroke="#202020" stroke-width="2" stroke-linecap="round" stroke-linejoin="round"/>
<path d="M4.97234 12.7501C5.69082 10.7197 6.91194 8.90439 8.52175 7.47358C10.1316 6.04276 12.0776 5.04307 14.1782 4.56777C16.2789 4.09246 18.4657 4.15705 20.5347 4.7555C22.6036 5.35394 24.4873 6.46674 26.0098 7.99007L32.5832 14.1667M1.4165 19.8334L7.98984 26.0101C9.5124 27.5334 11.396 28.6462 13.465 29.2446C15.5339 29.8431 17.7208 29.9077 19.8214 29.4324C21.9221 28.9571 23.8681 27.9574 25.4779 26.5266C27.0877 25.0957 28.3088 23.2805 29.0273 21.2501" stroke="#202020" stroke-width="2" stroke-linecap="round" stroke-linejoin="round"/>
</svg>
