<svg width="54" height="54" viewBox="0 0 54 54" fill="none" xmlns="http://www.w3.org/2000/svg">
<path d="M11.25 40.5H6.75C5.55653 40.5 4.41193 40.0259 3.56802 39.182C2.72411 38.3381 2.25 37.1935 2.25 36V18C2.25 16.8065 2.72411 15.6619 3.56802 14.818C4.41193 13.9741 5.55653 13.5 6.75 13.5H13.9275M33.75 13.5H38.25C39.4435 13.5 40.5881 13.9741 41.432 14.818C42.2759 15.6619 42.75 16.8065 42.75 18V36C42.75 37.1935 42.2759 38.3381 41.432 39.182C40.5881 40.0259 39.4435 40.5 38.25 40.5H31.0725" stroke="#0085FF" stroke-width="2" stroke-linecap="round" stroke-linejoin="round"/>
<path d="M51.75 29.25V24.75" stroke="#0085FF" stroke-width="2" stroke-linecap="round" stroke-linejoin="round"/>
<path d="M24.75 13.5L15.75 27H29.25L20.25 40.5" stroke="#0085FF" stroke-width="2" stroke-linecap="round" stroke-linejoin="round"/>
</svg>
