<svg width="54" height="54" viewBox="0 0 54 54" fill="none" xmlns="http://www.w3.org/2000/svg">
<path d="M42.75 6.75H11.25C8.76472 6.75 6.75 8.76472 6.75 11.25V42.75C6.75 45.2353 8.76472 47.25 11.25 47.25H42.75C45.2353 47.25 47.25 45.2353 47.25 42.75V11.25C47.25 8.76472 45.2353 6.75 42.75 6.75Z" stroke="#0085FF" stroke-width="2" stroke-linecap="round" stroke-linejoin="round"/>
<path d="M19.125 22.5C20.989 22.5 22.5 20.989 22.5 19.125C22.5 17.261 20.989 15.75 19.125 15.75C17.261 15.75 15.75 17.261 15.75 19.125C15.75 20.989 17.261 22.5 19.125 22.5Z" stroke="#0085FF" stroke-width="2" stroke-linecap="round" stroke-linejoin="round"/>
<path d="M47.25 33.75L36 22.5L11.25 47.25" stroke="#0085FF" stroke-width="2" stroke-linecap="round" stroke-linejoin="round"/>
</svg>
