<svg width="54" height="54" viewBox="0 0 54 54" fill="none" xmlns="http://www.w3.org/2000/svg">
<path d="M27 33.75C30.7279 33.75 33.75 30.7279 33.75 27C33.75 23.2721 30.7279 20.25 27 20.25C23.2721 20.25 20.25 23.2721 20.25 27C20.25 30.7279 23.2721 33.75 27 33.75Z" stroke="#0085FF" stroke-width="2" stroke-linecap="round" stroke-linejoin="round"/>
<path d="M43.65 33.75C43.3505 34.4286 43.2611 35.1814 43.3935 35.9113C43.5258 36.6412 43.8738 37.3147 44.3925 37.845L44.5275 37.98C44.9459 38.3979 45.2778 38.8942 45.5043 39.4405C45.7307 39.9868 45.8473 40.5724 45.8473 41.1638C45.8473 41.7551 45.7307 42.3407 45.5043 42.887C45.2778 43.4333 44.9459 43.9296 44.5275 44.3475C44.1096 44.7659 43.6133 45.0978 43.067 45.3243C42.5207 45.5507 41.9351 45.6673 41.3438 45.6673C40.7524 45.6673 40.1668 45.5507 39.6205 45.3243C39.0742 45.0978 38.5779 44.7659 38.16 44.3475L38.025 44.2125C37.4947 43.6938 36.8212 43.3458 36.0913 43.2135C35.3614 43.0811 34.6086 43.1705 33.93 43.47C33.2645 43.7552 32.697 44.2288 32.2972 44.8325C31.8974 45.4361 31.6829 46.1435 31.68 46.8675V47.25C31.68 48.4435 31.2059 49.5881 30.362 50.432C29.5181 51.2759 28.3735 51.75 27.18 51.75C25.9865 51.75 24.8419 51.2759 23.998 50.432C23.1541 49.5881 22.68 48.4435 22.68 47.25V47.0475C22.6626 46.3028 22.4215 45.5805 21.9881 44.9746C21.5548 44.3687 20.9492 43.9071 20.25 43.65C19.5714 43.3505 18.8186 43.2611 18.0887 43.3935C17.3588 43.5258 16.6853 43.8738 16.155 44.3925L16.02 44.5275C15.6021 44.9459 15.1058 45.2778 14.5595 45.5043C14.0132 45.7307 13.4276 45.8473 12.8362 45.8473C12.2449 45.8473 11.6593 45.7307 11.113 45.5043C10.5667 45.2778 10.0704 44.9459 9.6525 44.5275C9.23411 44.1096 8.90219 43.6133 8.67573 43.067C8.44927 42.5207 8.33271 41.9351 8.33271 41.3438C8.33271 40.7524 8.44927 40.1668 8.67573 39.6205C8.90219 39.0742 9.23411 38.5779 9.6525 38.16L9.7875 38.025C10.3062 37.4947 10.6542 36.8212 10.7865 36.0913C10.9189 35.3614 10.8295 34.6086 10.53 33.93C10.2448 33.2645 9.7712 32.697 9.16755 32.2972C8.56389 31.8974 7.85652 31.6829 7.1325 31.68H6.75C5.55653 31.68 4.41193 31.2059 3.56802 30.362C2.72411 29.5181 2.25 28.3735 2.25 27.18C2.25 25.9865 2.72411 24.8419 3.56802 23.998C4.41193 23.1541 5.55653 22.68 6.75 22.68H6.9525C7.69724 22.6626 8.41951 22.4215 9.02542 21.9881C9.63134 21.5548 10.0929 20.9492 10.35 20.25C10.6495 19.5714 10.7389 18.8186 10.6065 18.0887C10.4742 17.3588 10.1262 16.6853 9.6075 16.155L9.4725 16.02C9.05411 15.6021 8.72219 15.1058 8.49573 14.5595C8.26927 14.0132 8.15271 13.4276 8.15271 12.8362C8.15271 12.2449 8.26927 11.6593 8.49573 11.113C8.72219 10.5667 9.05411 10.0704 9.4725 9.6525C9.89043 9.23411 10.3867 8.90219 10.933 8.67573C11.4793 8.44927 12.0649 8.33271 12.6562 8.33271C13.2476 8.33271 13.8332 8.44927 14.3795 8.67573C14.9258 8.90219 15.4221 9.23411 15.84 9.6525L15.975 9.7875C16.5053 10.3062 17.1788 10.6542 17.9087 10.7865C18.6386 10.9189 19.3914 10.8295 20.07 10.53H20.25C20.9155 10.2448 21.483 9.7712 21.8828 9.16755C22.2826 8.56389 22.4971 7.85652 22.5 7.1325V6.75C22.5 5.55653 22.9741 4.41193 23.818 3.56802C24.6619 2.72411 25.8065 2.25 27 2.25C28.1935 2.25 29.3381 2.72411 30.182 3.56802C31.0259 4.41193 31.5 5.55653 31.5 6.75V6.9525C31.5029 7.67652 31.7174 8.38389 32.1172 8.98755C32.517 9.5912 33.0845 10.0648 33.75 10.35C34.4286 10.6495 35.1814 10.7389 35.9113 10.6065C36.6412 10.4742 37.3147 10.1262 37.845 9.6075L37.98 9.4725C38.3979 9.05411 38.8942 8.72219 39.4405 8.49573C39.9868 8.26927 40.5724 8.15271 41.1638 8.15271C41.7551 8.15271 42.3407 8.26927 42.887 8.49573C43.4333 8.72219 43.9296 9.05411 44.3475 9.4725C44.7659 9.89043 45.0978 10.3867 45.3243 10.933C45.5507 11.4793 45.6673 12.0649 45.6673 12.6562C45.6673 13.2476 45.5507 13.8332 45.3243 14.3795C45.0978 14.9258 44.7659 15.4221 44.3475 15.84L44.2125 15.975C43.6938 16.5053 43.3458 17.1788 43.2135 17.9087C43.0811 18.6386 43.1705 19.3914 43.47 20.07V20.25C43.7552 20.9155 44.2288 21.483 44.8325 21.8828C45.4361 22.2826 46.1435 22.4971 46.8675 22.5H47.25C48.4435 22.5 49.5881 22.9741 50.432 23.818C51.2759 24.6619 51.75 25.8065 51.75 27C51.75 28.1935 51.2759 29.3381 50.432 30.182C49.5881 31.0259 48.4435 31.5 47.25 31.5H47.0475C46.3235 31.5029 45.6161 31.7174 45.0125 32.1172C44.4088 32.517 43.9352 33.0845 43.65 33.75Z" stroke="#0085FF" stroke-width="2" stroke-linecap="round" stroke-linejoin="round"/>
</svg>
