<svg width="54" height="54" viewBox="0 0 54 54" fill="none" xmlns="http://www.w3.org/2000/svg">
<path d="M50.7148 14.445C50.4476 13.3772 49.9032 12.3988 49.1368 11.6087C48.3704 10.8185 47.409 10.2447 46.3498 9.945C42.4798 9 26.9998 9 26.9998 9C26.9998 9 11.5198 9 7.64982 10.035C6.59063 10.3347 5.62927 10.9085 4.86285 11.6987C4.09643 12.4888 3.5521 13.4672 3.28482 14.535C2.57655 18.4625 2.2301 22.4467 2.24982 26.4375C2.22457 30.4583 2.57105 34.4729 3.28482 38.43C3.57948 39.4647 4.13601 40.4058 4.90065 41.1626C5.66528 41.9193 6.61217 42.4661 7.64982 42.75C11.5198 43.785 26.9998 43.785 26.9998 43.785C26.9998 43.785 42.4798 43.785 46.3498 42.75C47.409 42.4503 48.3704 41.8765 49.1368 41.0863C49.9032 40.2962 50.4476 39.3178 50.7148 38.25C51.4176 34.3521 51.7641 30.3982 51.7498 26.4375C51.7751 22.4166 51.4286 18.4021 50.7148 14.445Z" stroke="#0085FF" stroke-width="2" stroke-linecap="round" stroke-linejoin="round"/>
<path d="M21.9375 33.795L34.875 26.4375L21.9375 19.08V33.795Z" stroke="#0085FF" stroke-width="2" stroke-linecap="round" stroke-linejoin="round"/>
</svg>
